<?xml version='1.0' encoding='iso-8859-1'?>
<svg version="1.1" xmlns="http://www.w3.org/2000/svg" viewBox="0 0 44 44" xmlns:xlink="http://www.w3.org/1999/xlink" enable-background="new 0 0 44 44">
  <g>
    <path d="m22,13c-5,0-9,4-9,9s4,9 9,9 9-4 9-9-4-9-9-9zm-5,11c-1.1,0-2-0.9-2-2s0.9-2 2-2 2,0.9 2,2-0.9,2-2,2zm5,5c-1.1,0-2-0.9-2-2s0.9-2 2-2 2,0.9 2,2-0.9,2-2,2zm0-10c-1.1,0-2-0.9-2-2s0.9-2 2-2 2,0.9 2,2-0.9,2-2,2zm7,3c0,1.1-0.9,2-2,2s-2-0.9-2-2 0.9-2 2-2 2,0.9 2,2z"/>
    <path d="M22,0C9.8,0,0,9.8,0,22s9.8,22,22,22s22-9.8,22-22S34.2,0,22,0z M35,34c0,0.6-0.4,1-1,1h-2c-0.6,0-1-0.4-1-1v-1.5   c0-0.4-0.5-0.7-0.8-0.4C28,33.9,25.1,35,22,35c-7.2,0-13-5.8-13-13S14.8,9,22,9s13,5.8,13,13V34z"/>
  </g>
</svg>
