<?xml version='1.0' encoding='iso-8859-1'?>
<svg version="1.1" xmlns="http://www.w3.org/2000/svg" viewBox="0 0 44 44" xmlns:xlink="http://www.w3.org/1999/xlink" enable-background="new 0 0 44 44">
  <g>
    <path d="m26.4,14h-4.4-4.4c-0.3,0-0.5,0.2-0.5,0.5 0,0.1 0,0.1 0,0.2 0.3,0.6 0.8,1.3 1.4,2.1 1.1,1.4 2.4,3.1 2.4,5.2s-1.3,3.8-2.4,5.2c-0.6,0.7-1.1,1.4-1.4,2.1 0,0.1 0,0.1 0,0.2 0,0.3 0.2,0.5 0.5,0.5h4.4 4.4c0.3,0 0.5-0.2 0.5-0.5 0-0.1 0-0.1 0-0.2-0.3-0.6-0.8-1.3-1.4-2.1-1.1-1.4-2.4-3.1-2.4-5.2s1.3-3.8 2.4-5.2c0.6-0.7 1.1-1.4 1.4-2.1 0-0.1 0-0.1 0-0.2 0-0.3-0.2-0.5-0.5-0.5z"/>
    <path d="m26.8,29.3l0,0z"/>
    <path d="m26.8,14.7l0,0z"/>
    <path d="m22,0c-12.2,0-22,9.8-22,22s9.8,22 22,22 22-9.8 22-22-9.8-22-22-22zm10,13c0,0.4-0.3,0.8-0.7,0.9-0.2,0.1-0.3,0.2-0.3,0.4-0.1,2-1.3,3.5-2.4,4.9-0.8,1-1.6,2-1.6,2.8s0.8,1.7 1.6,2.8c1.1,1.3 2.3,2.9 2.4,4.9 0,0.2 0.1,0.4 0.3,0.4 0.4,0.1 0.7,0.5 0.7,0.9v2c0,0.6-0.4,1-1,1h-9-9c-0.6,0-1-0.4-1-1v-2c0-0.4 0.3-0.8 0.7-0.9 0.2-0.1 0.3-0.2 0.3-0.4 0.1-2 1.3-3.5 2.4-4.9 0.8-1 1.6-2 1.6-2.8s-0.8-1.7-1.6-2.8c-1.1-1.3-2.3-2.9-2.4-4.9 0-0.2-0.1-0.4-0.3-0.4-0.4-0.1-0.7-0.5-0.7-0.9v-2c0-0.6 0.4-1 1-1h9 9c0.6,0 1,0.4 1,1v2z"/>
  </g>
</svg>
