<?xml version='1.0' encoding='iso-8859-1'?>
<svg version="1.1" xmlns="http://www.w3.org/2000/svg" viewBox="0 0 44 44" xmlns:xlink="http://www.w3.org/1999/xlink" enable-background="new 0 0 44 44">
  <g>
    <circle cx="22" cy="22" r="3"/>
    <path d="m22,0c-12.2,0-22,9.8-22,22s9.8,22 22,22 22-9.8 22-22-9.8-22-22-22zm5.7,13.5l1.4-1.4c0.4-0.4 1-0.4 1.4,0l1.4,1.4c0.4,0.4 0.4,1 0,1.4l-1.4,1.4c-0.4,0.4-1,0.4-1.4,0l-1.4-1.4c-0.4-0.4-0.4-1 0-1.4zm-7.7-3.5c0-0.6 0.4-1 1-1h2c0.6,0 1,0.4 1,1v2c0,0.6-0.4,1-1,1h-2c-0.6,0-1-0.4-1-1v-2zm-7.9,3.5l1.4-1.4c0.4-0.4 1-0.4 1.4,0l1.4,1.4c0.4,0.4 0.4,1 0,1.4l-1.4,1.4c-0.4,0.4-1,0.4-1.4,0l-1.4-1.4c-0.4-0.4-0.4-1 0-1.4zm-3.1,9.5v-2c0-0.6 0.4-1 1-1h2c0.6,0 1,0.4 1,1v2c0,0.6-0.4,1-1,1h-2c-0.6,0-1-0.4-1-1zm7.3,7.5l-1.4,1.4c-0.4,0.4-1,0.4-1.4,0l-1.4-1.4c-0.4-0.4-0.4-1 0-1.4l1.4-1.4c0.4-0.4 1-0.4 1.4,0l1.4,1.4c0.4,0.4 0.4,1 0,1.4zm7.7,3.5c0,0.6-0.4,1-1,1h-2c-0.6,0-1-0.4-1-1v-2c0-0.6 0.4-1 1-1h2c0.6,0 1,0.4 1,1v2zm-2-5c-3.9,0-7-3.1-7-7s3.1-7 7-7 7,3.1 7,7-3.1,7-7,7zm9.9,1.5l-1.4,1.4c-0.4,0.4-1,0.4-1.4,0l-1.4-1.4c-0.4-0.4-0.4-1 0-1.4l1.4-1.4c0.4-0.4 1-0.4 1.4,0l1.4,1.4c0.4,0.4 0.4,1 0,1.4zm3.1-7.5c0,0.6-0.4,1-1,1h-2c-0.6,0-1-0.4-1-1v-2c0-0.6 0.4-1 1-1h2c0.6,0 1,0.4 1,1v2z"/>
  </g>
</svg>
